<svg width="70" height="66" viewBox="0 0 70 66" fill="none" xmlns="http://www.w3.org/2000/svg">
<rect width="70" height="65.33" rx="20" fill="#06070D"/>
<path d="M44.4326 44.1032C42.6022 45.8776 40.6036 45.5974 38.6797 44.7569C36.6437 43.8977 34.7759 43.8603 32.6279 44.7569C29.9382 45.915 28.5187 45.5787 26.9123 44.1032C17.7973 34.7079 19.1421 20.4003 29.4899 19.8773C32.0115 20.008 33.7673 21.2595 35.2429 21.3716C37.4469 20.9233 39.5576 19.6345 41.9111 19.8026C44.7315 20.0267 46.8608 21.1474 48.2617 23.1647C42.434 26.6575 43.8162 34.3344 49.1583 36.4824C48.0936 39.2841 46.7114 42.0672 44.414 44.1218L44.4326 44.1032ZM35.0561 19.7652C34.7759 15.5999 38.1567 12.1631 42.0418 11.8269C42.5835 16.6459 37.6711 20.2322 35.0561 19.7652Z" fill="#E2E8F0"/>
</svg>
