<svg width="70" height="66" viewBox="0 0 70 66" fill="none" xmlns="http://www.w3.org/2000/svg">
<rect width="70" height="65.33" rx="20" fill="#E2E8F0"/>
<g clip-path="url(#clip0_17_2262)">
<path d="M46.146 16.6228C44.4043 14.6244 41.2558 13.7677 37.2279 13.7677H25.5379C25.1394 13.7676 24.7539 13.9107 24.4508 14.1712C24.1477 14.4317 23.9469 14.7925 23.8845 15.1888L19.017 46.2641C18.9203 46.8769 19.3917 47.4318 20.0087 47.4318H27.2257L29.0382 35.8593L28.9819 36.2216C29.111 35.4036 29.806 34.8003 30.629 34.8003H34.0585C40.7958 34.8003 46.0712 32.0457 47.6122 24.0771C47.6579 23.8414 47.6975 23.6121 47.7318 23.388C47.5373 23.2843 47.5373 23.2843 47.7318 23.388C48.1907 20.4427 47.7287 18.4379 46.146 16.6228Z" fill="#27346A"/>
<path d="M31.7997 22.327C31.9969 22.2323 32.2127 22.1832 32.4313 22.1835H41.596C42.6813 22.1835 43.6935 22.2546 44.6185 22.4045C44.8774 22.4461 45.1349 22.4957 45.3907 22.5532C45.7532 22.6338 46.1115 22.7323 46.4644 22.8485C46.9192 23.0014 47.3427 23.1795 47.7319 23.388C48.1907 20.4416 47.7287 18.4379 46.146 16.6228C44.4033 14.6244 41.2558 13.7677 37.2279 13.7677H25.5369C24.7138 13.7677 24.0135 14.3709 23.8845 15.1888L19.017 46.263C18.9203 46.8767 19.3917 47.4309 20.0077 47.4309H27.2257L30.986 23.4267C31.023 23.1908 31.1164 22.9674 31.2581 22.7759C31.3999 22.5843 31.5857 22.4303 31.7997 22.327Z" fill="#27346A"/>
<path d="M47.6123 24.0771C46.0713 32.0445 40.796 34.8003 34.0586 34.8003H30.6281C29.8051 34.8003 29.11 35.4036 28.9821 36.2217L26.7273 50.6107C26.643 51.147 27.055 51.6329 27.594 51.6329H33.6778C34.0263 51.6328 34.3633 51.5076 34.6282 51.2797C34.8932 51.0518 35.0687 50.7362 35.1231 50.3897L35.1824 50.0777L36.329 42.7626L36.4029 42.3583C36.4574 42.0118 36.6328 41.6963 36.8977 41.4684C37.1627 41.2405 37.4997 41.1152 37.8481 41.1151H38.7586C44.652 41.1151 49.2666 38.705 50.6151 31.7346C51.178 28.8217 50.8868 26.3897 49.3978 24.6815C48.9461 24.1641 48.3853 23.7368 47.7319 23.388C47.6965 23.6132 47.6581 23.8415 47.6123 24.0771Z" fill="#2790C3"/>
<path d="M46.119 22.7407C45.8788 22.6701 45.6362 22.6076 45.3918 22.5532C45.1359 22.4966 44.8784 22.4473 44.6197 22.4055C43.6937 22.2546 42.6822 22.1834 41.5959 22.1834H32.4323C32.2136 22.183 31.9977 22.2325 31.8007 22.328C31.5864 22.4309 31.4004 22.5848 31.2586 22.7765C31.1168 22.9681 31.0235 23.1916 30.9869 23.4277L29.0392 35.8593L28.9829 36.2216C29.111 35.4036 29.806 34.8003 30.6292 34.8003H34.0597C40.7969 34.8003 46.0722 32.0457 47.6132 24.0771C47.659 23.8414 47.6975 23.6131 47.7329 23.388C47.3427 23.1808 46.9202 23.0013 46.4654 22.8495C46.3506 22.8112 46.2352 22.775 46.1192 22.7407" fill="#1F264F"/>
</g>
<defs>
<clipPath id="clip0_17_2262">
<rect width="32" height="38" fill="white" transform="translate(19 13.665)"/>
</clipPath>
</defs>
</svg>
