<svg width="70" height="66" viewBox="0 0 70 66" fill="none" xmlns="http://www.w3.org/2000/svg">
<rect width="70" height="65.33" rx="20" fill="#191E25"/>
<g clip-path="url(#clip0_17_2279)">
<path d="M49.1121 21.2662C49.1121 15.1909 44.1674 10.2509 38.0874 10.2509H19.8379V16.3626H37.2197C39.9716 16.3626 42.25 18.5254 42.3006 21.1822C42.315 21.8355 42.1979 22.4849 41.9564 23.092C41.7148 23.6991 41.3538 24.2514 40.8946 24.7162C40.4387 25.1839 39.8935 25.5553 39.2913 25.8082C38.6891 26.0612 38.0423 26.1906 37.3891 26.1887H30.6172C30.5019 26.1892 30.3914 26.2352 30.3098 26.3167C30.2282 26.3983 30.1822 26.5088 30.1818 26.6242V32.0566C30.1818 32.1516 30.2093 32.2371 30.2641 32.3131L41.7528 48.2509H50.1619L38.6463 32.2687C44.4461 31.9774 49.1121 27.1071 49.1121 21.2662ZM26.9154 19.629H19.8379V48.2509H26.9154V19.629Z" fill="#E2E8F0"/>
</g>
<defs>
<clipPath id="clip0_17_2279">
<rect width="38" height="44.8281" fill="white" transform="translate(16 10.2509)"/>
</clipPath>
</defs>
</svg>
