<svg width="70" height="66" viewBox="0 0 70 66" fill="none" xmlns="http://www.w3.org/2000/svg">
<rect width="70" height="65.3333" rx="20" fill="#06070D"/>
<path d="M39.0358 12.68C37.1425 12.68 35.4492 13.6613 35.4492 15.4747C35.4492 17.5547 38.4505 17.6973 38.4505 18.7413C38.4505 19.1813 37.9465 19.576 37.0865 19.576C36.34 19.5711 35.6063 19.3819 34.9505 19.0253L34.5598 20.8547C34.5598 20.8547 35.6132 21.32 37.0092 21.32C39.0785 21.32 40.7078 20.2907 40.7078 18.4467C40.7078 16.2493 37.6945 16.1093 37.6945 15.14C37.6945 14.7947 38.1078 14.4173 38.9665 14.4173C39.9358 14.4173 40.7265 14.8173 40.7265 14.8173L41.1078 13.0507C41.1078 13.0507 40.2478 12.68 39.0358 12.68ZM21.7118 12.8133L21.6665 13.08C21.6665 13.08 22.4625 13.2267 23.1812 13.516C24.1038 13.8493 24.1705 14.044 24.3252 14.6467L26.0212 21.1827H28.2932L31.7945 12.8133H29.5278L27.2772 18.504L26.3598 13.68C26.2758 13.128 25.8492 12.8133 25.3265 12.8133H21.7118ZM32.7065 12.8133L30.9278 21.1827H33.0905L34.8625 12.8133H32.7065ZM44.7652 12.8133C44.2452 12.8133 43.9678 13.0933 43.7652 13.58L40.5972 21.1827H42.8638L43.3038 19.916H46.0652L46.3318 21.1827H48.3332L46.5878 12.8133H44.7652ZM45.0598 15.0747L45.7318 18.2147H43.9332L45.0598 15.0747Z" fill="#E2E8F0"/>
<g clip-path="url(#clip0_17_2244)">
<path d="M28.4932 30.4761H41.4588V53.5781H28.4932V30.4761Z" fill="#FF5F00"/>
<path d="M29.3167 42.0272C29.3167 37.3334 31.5393 33.17 34.9556 30.4761C32.4449 28.517 29.2756 27.3333 25.8181 27.3333C17.6268 27.3333 11 33.9047 11 42.0272C11 50.1497 17.6268 56.721 25.8179 56.721C29.2754 56.721 32.4447 55.5374 34.9556 53.5781C31.5393 50.925 29.3167 46.721 29.3167 42.0272Z" fill="#EB001B"/>
<path d="M58.9521 42.0272C58.9521 50.1495 52.3253 56.721 44.1342 56.721C40.6767 56.721 37.5074 55.5374 34.9966 53.5781C38.4541 50.8843 40.6356 46.721 40.6356 42.0272C40.6356 37.3334 38.4128 33.17 34.9966 30.4761C37.5072 28.517 40.6767 27.3333 44.1342 27.3333C52.3253 27.3333 58.9521 33.9456 58.9521 42.0272Z" fill="#F79E1B"/>
</g>
<defs>
<clipPath id="clip0_17_2244">
<rect width="48" height="37" fill="white" transform="translate(11 27.3333)"/>
</clipPath>
</defs>
</svg>
